<svg width="23" height="24" viewBox="0 0 23 24" fill="none" xmlns="http://www.w3.org/2000/svg">
<path d="M22.3493 11.0416L22.5 9.15289C22.5 9.15289 22.5 9.0076 22.3493 9.0076H17.0753C16.9247 8.57175 16.774 8.1359 16.6233 7.70005C15.4178 4.35852 12.8562 1.59812 9.5411 0H9.39041L8.93836 5.3755V5.52079C10.8973 6.10193 12.7055 7.40948 13.911 9.0076H4.86987C4.86987 9.0076 4.71918 9.0076 4.71918 9.15289V10.8963C4.71918 10.8963 4.71918 11.0416 4.86987 11.0416H15.1164C15.4178 11.6227 15.5685 12.2038 15.7192 12.785H4.86987C4.86987 12.785 4.71918 12.785 4.71918 12.9303V14.6737C4.71918 14.6737 4.71918 14.819 4.86987 14.819H16.1712C16.3219 16.1265 16.4726 17.5793 16.4726 18.8869C16.4726 19.0322 16.3219 19.1775 16.1712 19.1775H5.02055C3.5137 19.3228 2.15754 18.4511 1.85617 16.9982H1.10274C0.650687 18.3058 0.5 19.6133 0.5 20.9209C0.5 21.7926 1.10274 22.6643 1.85617 23.1001C2.76028 23.6813 3.81507 24.1171 4.86987 23.9718H18.1301V19.0322C18.1301 17.4341 18.1301 16.1265 17.9795 14.6737H22.1986C22.1986 14.6737 22.3493 14.6737 22.3493 14.5284V12.785C22.3493 12.785 22.3493 12.6397 22.1986 12.6397H17.8288C17.6781 12.0586 17.6781 11.4774 17.5274 10.8963H22.3493V11.0416Z" fill="currentColor"/>
</svg>
