<svg width="32" height="32" viewBox="0 0 32 32" fill="none" xmlns="http://www.w3.org/2000/svg">
<rect width="32" height="32" rx="16" fill="#BD0F1B"/>
<path d="M17.1279 16L22.1679 10.968C22.3185 10.8174 22.4031 10.613 22.4031 10.4C22.4031 10.187 22.3185 9.98265 22.1679 9.832C22.0172 9.68136 21.8129 9.59673 21.5999 9.59673C21.3868 9.59673 21.1825 9.68136 21.0319 9.832L15.9999 14.872L10.9679 9.832C10.8172 9.68136 10.6129 9.59673 10.3999 9.59673C10.1868 9.59673 9.9825 9.68136 9.83185 9.832C9.68121 9.98265 9.59658 10.187 9.59658 10.4C9.59658 10.613 9.68121 10.8174 9.83185 10.968L14.8719 16L9.83185 21.032C9.75687 21.1064 9.69736 21.1949 9.65674 21.2923C9.61613 21.3898 9.59521 21.4944 9.59521 21.6C9.59521 21.7056 9.61613 21.8102 9.65674 21.9077C9.69736 22.0052 9.75687 22.0936 9.83185 22.168C9.90622 22.243 9.9947 22.3025 10.0922 22.3431C10.1897 22.3837 10.2942 22.4046 10.3999 22.4046C10.5055 22.4046 10.61 22.3837 10.7075 22.3431C10.805 22.3025 10.8935 22.243 10.9679 22.168L15.9999 17.128L21.0319 22.168C21.1062 22.243 21.1947 22.3025 21.2922 22.3431C21.3897 22.3837 21.4942 22.4046 21.5999 22.4046C21.7055 22.4046 21.81 22.3837 21.9075 22.3431C22.005 22.3025 22.0935 22.243 22.1679 22.168C22.2428 22.0936 22.3024 22.0052 22.343 21.9077C22.3836 21.8102 22.4045 21.7056 22.4045 21.6C22.4045 21.4944 22.3836 21.3898 22.343 21.2923C22.3024 21.1949 22.2428 21.1064 22.1679 21.032L17.1279 16Z" fill="white"/>
</svg>
