<svg width="16" height="17" viewBox="0 0 16 17" fill="none" xmlns="http://www.w3.org/2000/svg">
<path d="M12.6667 5.16667H12V4.5C12 3.96957 11.7893 3.46086 11.4143 3.08579C11.0392 2.71071 10.5305 2.5 10 2.5H3.33337C2.80294 2.5 2.29423 2.71071 1.91916 3.08579C1.54409 3.46086 1.33337 3.96957 1.33337 4.5V12.5C1.33337 13.0304 1.54409 13.5391 1.91916 13.9142C2.29423 14.2893 2.80294 14.5 3.33337 14.5H12.6667C13.1971 14.5 13.7058 14.2893 14.0809 13.9142C14.456 13.5391 14.6667 13.0304 14.6667 12.5V7.16667C14.6667 6.63623 14.456 6.12753 14.0809 5.75245C13.7058 5.37738 13.1971 5.16667 12.6667 5.16667ZM3.33337 3.83333H10C10.1769 3.83333 10.3464 3.90357 10.4714 4.0286C10.5965 4.15362 10.6667 4.32319 10.6667 4.5V5.16667H3.33337C3.15656 5.16667 2.98699 5.09643 2.86197 4.9714C2.73695 4.84638 2.66671 4.67681 2.66671 4.5C2.66671 4.32319 2.73695 4.15362 2.86197 4.0286C2.98699 3.90357 3.15656 3.83333 3.33337 3.83333ZM13.3334 10.5H12.6667C12.4899 10.5 12.3203 10.4298 12.1953 10.3047C12.0703 10.1797 12 10.0101 12 9.83333C12 9.65652 12.0703 9.48695 12.1953 9.36193C12.3203 9.23691 12.4899 9.16667 12.6667 9.16667H13.3334V10.5ZM13.3334 7.83333H12.6667C12.1363 7.83333 11.6276 8.04405 11.2525 8.41912C10.8774 8.79419 10.6667 9.3029 10.6667 9.83333C10.6667 10.3638 10.8774 10.8725 11.2525 11.2475C11.6276 11.6226 12.1363 11.8333 12.6667 11.8333H13.3334V12.5C13.3334 12.6768 13.2631 12.8464 13.1381 12.9714C13.0131 13.0964 12.8435 13.1667 12.6667 13.1667H3.33337C3.15656 13.1667 2.98699 13.0964 2.86197 12.9714C2.73695 12.8464 2.66671 12.6768 2.66671 12.5V6.38667C2.88089 6.46201 3.10633 6.50034 3.33337 6.5H12.6667C12.8435 6.5 13.0131 6.57024 13.1381 6.69526C13.2631 6.82029 13.3334 6.98986 13.3334 7.16667V7.83333Z" fill="#818283"/>
</svg>
